# xmcd
#
# Track frame offsets:
#	150
#	17971
#	39388
#	59629
#	77298
#	96277
#	110399
#	128133
#	149642
#	166941
#	183305
#	201541
#
# Disc length: 2907 seconds
#
# Revision: 2
# Processed by: cddbd v1.5.2PL0 Copyright (c) Steve Scherf et al.
# Submitted via: EasyCDDAExtractor 15.3.0.1
#
DISCID=a80b590c
DTITLE=Gisselle - Libre
DYEAR=2006
DGENRE=Latin
TTITLE0=Aventurero (Featuring Mr. P) (Reggaerengue)
TTITLE1=De Que Nos Vale (Balada)
TTITLE2=Intrusa
TTITLE3=No Me Interesa
TTITLE4=Duele En El Alma (Balada)
TTITLE5=Tu No Vales La Pena
TTITLE6=Libre
TTITLE7=Hasta Rompernos
TTITLE8=De Que Nos Vale (Merengue)
TTITLE9=Duele En El Alma (Merengue)
TTITLE10=No Tengo Ley (Gay Club Mix)
TTITLE11=Las Alas Del Amor
EXTD=
EXTT0=
EXTT1=
EXTT2=
EXTT3=
EXTT4=
EXTT5=
EXTT6=
EXTT7=
EXTT8=
EXTT9=
EXTT10=
EXTT11=
PLAYORDER=
